#!OML:ASF H:\Dans Jumps\Project 1\Capture day 1\Session 1\subject.ASF
:FULLY-SPECIFIED
:DEGREES
491
root 0.295284 17.008 -6.9564 9.59372 2.86366 -0.326967
lowerback 9.74593 0.784086 -0.600216
upperback 6.05093 1.00146 1.67117
thorax 0.778835 0.45883 1.97522
lowerneck -14.3743 -1.26472 -1.35503
upperneck 28.4871 -1.9617 1.83203
head 11.7165 -0.780038 0.638193
rclavicle 9.34288e-015 1.59028e-015
rhumerus -30.3818 8.09885 -88.6991
rradius 89.9682
rwrist 6.06845
rhand -32.4566 -30.0654
rfingers 7.12502
rthumb -5.68954 -59.9691
lclavicle 9.34288e-015 1.59028e-015
lhumerus -42.0138 -15.1445 92.1147
lradius 97.6618
lwrist 47.3663
lhand -34.3019 -17.937
lfingers 7.12502
lthumb -7.47095 11.9111
rfemur -35.7227 -5.15143 18.6447
rtibia 47.1378
rfoot -16.1918 -1.39089
rtoes 5.99877
lfemur -35.4241 6.68598 -19.451
ltibia 46.2154
lfoot -13.9734 0.769899
ltoes -2.44326
492
root 0.303641 17.0906 -6.95486 10.2433 2.89792 -0.367063
lowerback 9.53241 0.71028 -0.455437
upperback 5.97993 0.915072 1.6564
thorax 0.826856 0.419738 1.88783
lowerneck -14.3479 -1.26214 -1.335
upperneck 28.5758 -1.95082 1.78249
head 11.7447 -0.779164 0.618341
rclavicle -1.5704e-014 3.97569e-016
rhumerus -30.7607 8.34746 -88.735
rradius 90.2461
rwrist 6.18307
rhand -32.463 -29.99
rfingers 7.12502
rthumb -5.6958 -59.8934
lclavicle -1.5704e-014 3.97569e-016
lhumerus -42.5045 -15.2805 91.952
lradius 97.6817
lwrist 46.8206
lhand -34.2814 -17.7828
lfingers 7.12502
lthumb -7.45116 12.066
rfemur -35.3481 -5.13653 18.6767
rtibia 45.241
rfoot -15.873 -1.21123
rtoes 6.40869
lfemur -35.1906 6.77845 -19.5798
ltibia 44.48
lfoot -13.437 0.68862
ltoes -2.14119
493
root 0.31158 17.171 -6.95376 10.826 2.94279 -0.429482
lowerback 9.38074 0.639642 -0.306801
upperback 5.90812 0.832954 1.66084
thorax 0.839657 0.38275 1.81679
lowerneck -14.299 -1.26985 -1.34302
upperneck 28.5586 -1.94864 1.7442
head 11.7275 -0.784461 0.605949
rclavicle -9.74045e-015 -4.77083e-015
rhumerus -31.1949 8.55776 -88.7407
rradius 90.5989
rwrist 6.26651
rhand -32.5056 -29.898
rfingers 7.12502
rthumb -5.73691 -59.8003
lclavicle -9.74045e-015 -4.77083e-015
lhumerus -43.0328 -15.4091 91.8172
lradius 97.7418
lwrist 46.3279
lhand -34.3078 -17.6969
lfingers 7.12502
lthumb -7.4767 12.151
rfemur -34.9234 -5.05245 18.7133
rtibia 43.3961
rfoot -15.5082 -1.07982
rtoes 6.81949
lfemur -34.9921 6.82468 -19.6681
ltibia 42.9067
lfoot -12.8006 0.609233
ltoes -1.63384
494
root 0.318444 17.2475 -6.95314 11.3473 2.9835 -0.507116
lowerback 9.27587 0.580439 -0.176746
upperback 5.84105 0.764496 1.68529
thorax 0.830704 0.351803 1.77513
lowerneck -14.2293 -1.28625 -1.37481
upperneck 28.4328 -1.95398 1.71667
head 11.6644 -0.794939 0.600318
rclavicle 1.98785e-015 1.59028e-015
rhumerus -31.6663 8.72355 -88.7117
rradius 91.0142
rwrist 6.33095
rhand -32.5723 -29.809
rfingers 7.12502
rthumb -5.80126 -59.7096
lclavicle 1.98785e-015 1.59028e-015
lhumerus -43.5731 -15.5307 91.7104
lradius 97.8518
lwrist 46.0122
lhand -34.3463 -17.6655
lfingers 7.12502
lthumb -7.51383 12.181
rfemur -34.4819 -4.90124 18.7507
rtibia 41.6514
rfoot -15.1184 -0.98889
rtoes 7.24664
lfemur -34.8412 6.83616 -19.7189
ltibia 41.5195
lfoot -12.1089 0.537033
ltoes -0.913599
495
root 0.323648 17.3187 -6.95286 11.8148 3.00384 -0.588131
lowerback 9.19762 0.540214 -0.0861354
upperback 5.78076 0.718171 1.72361
thorax 0.812833 0.330622 1.76786
lowerneck -14.143 -1.30631 -1.41541
upperneck 28.2241 -1.96166 1.69132
head 11.566 -0.807523 0.596551
rclavicle 4.57205e-015 9.54166e-015
rhumerus -32.1553 8.84303 -88.6497
rradius 91.4688
rwrist 6.3896
rhand -32.6471 -29.7192
rfingers 7.12502
rthumb -5.87349 -59.6178
lclavicle 4.57205e-015 9.54166e-015
lhumerus -44.0998 -15.653 91.6208
lradius 98.0062
lwrist 45.9401
lhand -34.3503 -17.6851
lfingers 7.12502
lthumb -7.51771 12.1614
rfemur -34.0569 -4.6916 18.7834
rtibia 40.0443
rfoot -14.7181 -0.934658
rtoes 7.71838
lfemur -34.7344 6.82669 -19.7416
ltibia 40.3126
lfoot -11.4095 0.480284
ltoes -0.0527343
496
root 0.327082 17.3833 -6.95285 12.232 2.99774 -0.668055
lowerback 9.13145 0.521424 -0.0336774
upperback 5.73107 0.697255 1.76807
thorax 0.798114 0.320968 1.78623
lowerneck -14.0751 -1.3284 -1.44298
upperneck 27.9802 -1.97159 1.65406
head 11.4581 -0.821137 0.585742
rclavicle -5.76476e-015 -3.97569e-016
rhumerus -32.6367 8.91614 -88.5602
rradius 91.9341
rwrist 6.45501
rhand -32.7246 -29.6409
rfingers 7.12502
rthumb -5.94835 -59.5374
lclavicle -5.76476e-015 -3.97569e-016
lhumerus -44.589 -15.7858 91.5365
lradius 98.1966
lwrist 46.1298
lhand -34.318 -17.734
lfingers 7.12502
lthumb -7.48649 12.1136
rfemur -33.6624 -4.44786 18.8127
rtibia 38.5944
rfoot -14.3284 -0.894472
rtoes 8.32192
lfemur -34.6552 6.80561 -19.7401
ltibia 39.2604
lfoot -10.7502 0.442058
ltoes 0.867636
497
root 0.328661 17.44 -6.95319 12.6125 2.9768 -0.730722
lowerback 9.05815 0.517473 -0.0289006
upperback 5.69071 0.692268 1.81397
thorax 0.795997 0.317959 1.83167
lowerneck -14.0147 -1.34894 -1.4828
upperneck 27.7178 -1.97977 1.63036
head 11.3454 -0.833484 0.582297
rclavicle 9.93923e-016 -1.98785e-015
rhumerus -33.0872 8.95663 -88.4457
rradius 92.3852
rwrist 6.52903
rhand -32.8072 -29.5878
rfingers 7.12502
rthumb -6.02811 -59.4821
lclavicle 9.93923e-016 -1.98785e-015
lhumerus -45.0248 -15.9232 91.4533
lradius 98.4044
lwrist 46.541
lhand -34.2346 -17.8215
lfingers 7.12502
lthumb -7.40602 12.0289
rfemur -33.318 -4.20805 18.8326
rtibia 37.3089
rfoot -13.9635 -0.868028
rtoes 8.99955
lfemur -34.5937 6.76606 -19.7312
ltibia 38.322
lfoot -10.1631 0.424442
ltoes 1.69756
498
root 0.328898 17.4883 -6.9532 12.9501 2.94043 -0.778216
lowerback 8.97311 0.526112 -0.0543012
upperback 5.66064 0.70147 1.85337
thorax 0.81032 0.321281 1.88639
lowerneck -13.9769 -1.36393 -1.52017
upperneck 27.4816 -1.98252 1.61186
head 11.2478 -0.842124 0.581122
rclavicle -2.78299e-015 2.38542e-015
rhumerus -33.4901 8.97023 -88.3173
rradius 92.794
rwrist 6.61561
rhand -32.888 -29.5364
rfingers 7.12502
rthumb -6.10611 -59.4284
lclavicle -2.78299e-015 2.38542e-015
lhumerus -45.3971 -16.0729 91.3587
lradius 98.6053
lwrist 47.089
lhand -34.0931 -17.9368
lfingers 7.12502
lthumb -7.26939 11.9183
rfemur -33.0114 -3.99417 18.8492
rtibia 36.1767
rfoot -13.6505 -0.840566
rtoes 9.7298
lfemur -34.5142 6.71359 -19.7127
ltibia 37.455
lfoot -9.6782 0.423192
ltoes 2.38706
499
root 0.328297 17.5277 -6.95194 13.2405 2.89043 -0.811292
lowerback 8.87006 0.542182 -0.10053
upperback 5.6417 0.718703 1.88397
thorax 0.845672 0.328095 1.94332
lowerneck -13.9676 -1.3713 -1.54998
upperneck 27.2998 -1.97662 1.59177
head 11.1767 -0.845817 0.579281
rclavicle -1.98785e-015 -3.97569e-015
rhumerus -33.839 8.97154 -88.1792
rradius 93.1461
rwrist 6.7113
rhand -32.9596 -29.4769
rfingers 7.12502
rthumb -6.17521 -59.3669
lclavicle -1.98785e-015 -3.97569e-015
lhumerus -45.7069 -16.2299 91.2482
lradius 98.7796
lwrist 47.6603
lhand -33.9243 -18.0565
lfingers 7.12502
lthumb -7.1065 11.8041
rfemur -32.725 -3.82037 18.8648
rtibia 35.1752
rfoot -13.4099 -0.804937
rtoes 10.468
lfemur -34.3867 6.65455 -19.6869
ltibia 36.624
lfoot -9.32011 0.438844
ltoes 2.88236
500
root 0.327587 17.5583 -6.94826 13.4794 2.81632 -0.837661
lowerback 8.74501 0.566334 -0.151127
upperback 5.63103 0.746034 1.90181
thorax 0.901391 0.339883 1.98903
lowerneck -13.9546 -1.37103 -1.57524
upperneck 27.1677 -1.96422 1.57949
head 11.124 -0.844921 0.580561
rclavicle 1.78906e-015 1.19271e-014
rhumerus -34.1354 8.96656 -88.0387
rradius 93.4294
rwrist 6.81066
rhand -33.0213 -29.4091
rfingers 7.12502
rthumb -6.23479 -59.2974
lclavicle 1.78906e-015 1.19271e-014
lhumerus -45.9645 -16.3936 91.1227
lradius 98.9085
lwrist 48.1346
lhand -33.7397 -18.1642
lfingers 7.12502
lthumb -6.92833 11.7024
rfemur -32.4375 -3.68365 18.8837
rtibia 34.2714
rfoot -13.2594 -0.752227
rtoes 11.1204
lfemur -34.1884 6.60803 -19.6529
ltibia 35.8086
lfoot -9.10162 0.474093
ltoes 3.19253
501
root 0.327243 17.5804 -6.94138 13.6618 2.71348 -0.871064
lowerback 8.59665 0.597127 -0.189003
upperback 5.62843 0.78276 1.90842
thorax 0.978198 0.356675 2.01562
lowerneck -13.9522 -1.35854 -1.58778
upperneck 27.1158 -1.93886 1.56676
head 11.1033 -0.836561 0.581395
rclavicle -7.55382e-015 -9.14409e-015
rhumerus -34.3781 8.96556 -87.899
rradius 93.6359
rwrist 6.91051
rhand -33.0733 -29.3147
rfingers 7.12502
rthumb -6.28499 -59.2014
lclavicle -7.55382e-015 -9.14409e-015
lhumerus -46.1766 -16.5615 90.983
lradius 98.9799
lwrist 48.4173
lhand -33.5766 -18.2082
lfingers 7.12502
lthumb -6.77087 11.6636
rfemur -32.1304 -3.57472 18.9149
rtibia 33.4378
rfoot -13.2035 -0.677577
rtoes 11.6651
lfemur -33.9055 6.58845 -19.6018
ltibia 35.0048
lfoot -9.03445 0.532489
ltoes 3.35775
502
root 0.327573 17.5945 -6.93114 13.7887 2.57994 -0.928997
lowerback 8.4293 0.633881 -0.194902
upperback 5.62861 0.829334 1.90794
thorax 1.06843 0.379192 2.01653
lowerneck -13.949 -1.335 -1.58649
upperneck 27.138 -1.90179 1.55107
head 11.1102 -0.821618 0.580558
rclavicle -6.95746e-015 4.37326e-015
rhumerus -34.5791 8.97333 -87.7608
rradius 93.7682
rwrist 7.01368
rhand -33.11 -29.2275
rfingers 7.12502
rthumb -6.3204 -59.1132
lclavicle -6.95746e-015 4.37326e-015
lhumerus -46.3619 -16.7254 90.8356
lradius 98.9963
lwrist 48.4499
lhand -33.4621 -18.1743
lfingers 7.12502
lthumb -6.66036 11.701
rfemur -31.801 -3.4843 18.9742
rtibia 32.6627
rfoot -13.2308 -0.576628
rtoes 12.0498
lfemur -33.5453 6.61195 -19.5238
ltibia 34.2217
lfoot -9.11649 0.620804
ltoes 3.45442
